<?xml version="1.0" encoding="UTF-8"?>
<svg id="_レイヤー_2" xmlns="http://www.w3.org/2000/svg" version="1.1" viewBox="0 0 644 146.6">
  <!-- Generator: Adobe Illustrator 30.0.0, SVG Export Plug-In . SVG Version: 2.1.1 Build 123)  -->
  <defs>
    <style>
      .st0 {
        fill: #fff;
      }
    </style>
  </defs>
  <g id="_レイヤー_2-2">
    <g>
      <g>
        <path class="st0" d="M30.4,93.1c-2.9,0-5.5.5-8,1.4-2.5,1-4.5,2.4-6.3,4.3s-3.2,4.3-4.2,7.1c-1,2.8-1.5,6.1-1.5,9.7,0,7.2,1.8,12.8,5.4,16.6,3.6,3.8,8.5,5.8,14.5,5.8s6.5-.5,8.9-1.4c1.6-.7,3.1-1.4,4.5-2.2s3-.5,4,.6c0,0,0,0,0,.1.6.8.9,1.7.9,2.8s-.5,2.3-1.4,3.3-2.2,1.9-3.9,2.7c-1.6.8-3.6,1.4-5.8,1.8-2.2.5-4.7.7-7.3.7-4.4,0-8.4-.6-12.1-1.9-3.7-1.3-6.9-3.2-9.6-5.7s-4.8-5.7-6.3-9.6C.8,125.3,0,120.8,0,115.6s.8-9.6,2.4-13.5c1.6-3.8,3.8-7.1,6.5-9.7s5.9-4.6,9.6-5.9,7.6-2,11.7-2,5,.2,7.3.7c2.2.5,4.2,1.1,5.8,2s2.8,1.8,3.7,2.8c.9,1.1,1.3,2.1,1.3,3.2s-.3,1.9-.9,2.7h0c-.9,1.2-2.6,1.5-3.9.7-1.4-.8-2.9-1.6-4.4-2.2-2.2-.9-5.1-1.4-8.6-1.4h0Z"/>
        <path class="st0" d="M78.6,84.6c7.3,0,13.2,1.6,17.4,4.9,4.3,3.3,6.4,8.5,6.4,15.6v30c0,1.9-.4,3.3-1.1,4.2s-1.8,1.9-3.2,2.7c-2,1.2-4.7,2.2-8,3.1s-7.1,1.3-11.4,1.3c-7.9,0-14.1-1.6-18.4-4.7-4.3-3.1-6.5-7.6-6.5-13.5s1.8-9.8,5.4-12.6c3.6-2.8,8.7-4.6,15.3-5.2l18-1.8v-3.5c0-4.2-1.3-7.3-3.8-9.2-2.5-1.9-5.9-2.9-10.2-2.9s-6.9.5-10,1.5c-2.4.8-4.5,1.6-6.5,2.5-1.2.6-2.7.2-3.5-.9h0c-.6-.9-1-1.9-1-3s.3-2,.9-2.7c.6-.8,1.5-1.5,2.8-2.2,2.3-1.2,4.9-2.1,7.8-2.7,2.9-.6,6.2-.9,9.6-.9h0ZM78.7,138.1c3.5,0,6.5-.4,8.8-1.1,2.3-.7,4-1.4,5-2.1v-18.3l-15.7,1.6c-4.4.4-7.6,1.4-9.7,3s-3.2,3.9-3.2,6.9,1.2,5.7,3.7,7.4c2.4,1.7,6.2,2.6,11.1,2.6h0Z"/>
        <path class="st0" d="M124.5,89.5h23.4c1,0,2,.7,2.4,1.6h0c.3.7.4,1.5.4,2.4,0,2.8-1.3,4.2-3.9,4.2h-22.1v41.6c0,2.2,0,5.9-5.1,5.9-5.1,0-5.1-3.7-5.1-5.9v-58.3c0-7.4,2-12.8,6-16.1,4-3.3,9.6-5,16.8-5s8.6.6,11.3,1.9c2.7,1.3,4.1,2.8,4.1,4.7h0c0,2.6-2.5,4.3-4.8,3.5-.9-.3-1.9-.6-3-.9-2.3-.6-4.5-.8-6.6-.8-5.1,0-8.7,1.1-10.8,3.2-2,2.1-3,5.5-3,10.1v8h0Z"/>
        <path class="st0" d="M164.2,121.5c2.3,11.1,9.5,16.6,21.8,16.6s6.7-.6,9.6-1.8c1.7-.7,3.1-1.4,4.4-2.1,2.4-1.4,5.4.3,5.4,3.1h0c0,1.2-.5,2.4-1.6,3.5-1.1,1.1-2.5,2.1-4.3,2.9s-3.9,1.5-6.3,2c-2.4.5-5,.8-7.8.8-9.8,0-17.5-2.7-23.2-8s-8.5-13.1-8.5-23.3.7-9.1,2.1-12.8c1.4-3.8,3.3-6.9,5.8-9.6,2.5-2.6,5.5-4.6,8.9-6,3.5-1.4,7.2-2.1,11.2-2.1s7.3.6,10.5,1.9c3.2,1.3,6,3.1,8.3,5.4,2.3,2.3,4.1,5.1,5.4,8.2s2,6.6,2,10.4-.4,3.2-1.3,4-2,1.3-3.5,1.4l-38.9,5.4h0ZM181.6,92.9c-5.1,0-9.4,1.8-12.8,5.4-3.4,3.6-5.1,8.7-5.3,15.4l34.8-4.8c-.4-4.6-2-8.4-4.9-11.4-2.8-3-6.8-4.5-11.8-4.5h0ZM189.3,61.2c1.6-1.8,4.4-2,6.2-.5h0c1.1,1,1.7,2.1,1.7,3.2s-.2,2.1-.8,2.9-1.4,1.6-2.5,2.7l-8.8,8.5c-1.5,1.5-3.9,1.6-5.5.2h0c-1-.9-1.5-1.9-1.5-3s.2-1.3.6-1.9c.4-.6.8-1.1,1.3-1.6l9.2-10.5h0Z"/>
        <path class="st0" d="M600.2,121.7c2.3,11.1,9.5,16.6,21.8,16.6s6.7-.6,9.6-1.8c1.7-.7,3.1-1.4,4.4-2.1,2.4-1.4,5.4.3,5.5,3.1h0c0,1.2-.5,2.4-1.6,3.5-1,1.1-2.5,2.1-4.3,2.9s-3.9,1.5-6.3,2c-2.4.5-5,.8-7.8.8-9.8,0-17.5-2.7-23.2-8s-8.5-13.1-8.5-23.3.7-9.1,2.1-12.8c1.4-3.8,3.3-6.9,5.8-9.6,2.5-2.6,5.5-4.6,8.9-6,3.5-1.4,7.2-2.1,11.2-2.1s7.3.6,10.5,1.9c3.2,1.3,6,3.1,8.3,5.4,2.3,2.3,4.1,5.1,5.4,8.2s2,6.6,2,10.4-.4,3.2-1.3,4-2,1.3-3.5,1.4l-39,5.4h0ZM617.7,93.1c-5.1,0-9.4,1.8-12.8,5.4s-5.1,8.7-5.3,15.4l34.8-4.8c-.4-4.6-2-8.4-4.9-11.4-2.8-3-6.8-4.5-11.8-4.5h0ZM625.4,61.3c1.6-1.8,4.4-2,6.2-.5h0c1.1,1,1.7,2.1,1.7,3.2s-.2,2.1-.8,2.8-1.3,1.6-2.5,2.7l-8.8,8.5c-1.5,1.5-3.9,1.6-5.5.2h0c-1-.9-1.5-1.9-1.5-3s.2-1.3.6-1.9c.4-.6.8-1.1,1.3-1.6l9.2-10.5h0Z"/>
        <g>
          <path class="st0" d="M274.4,80.8c-1.9,0-3,.3-3.6,1.1-.5.7-.5,1.6-.5,2.7v16.4c-1.4-.7-3-1.3-4.8-1.8-2-.5-4-.8-6.1-.8-3.1,0-6,.5-8.7,1.4-2.7.9-5.1,2.4-7.1,4.4-2,2-3.6,4.5-4.8,7.6-1.2,3-1.8,6.7-1.8,11s.6,7.8,1.7,10.8c1.1,3,2.8,5.5,4.9,7.4,2.1,1.9,4.7,3.4,7.7,4.3,2.9.9,6.2,1.4,9.8,1.4s6-.4,8.4-1.1c2.4-.8,4.3-1.6,5.6-2.4,1.2-.7,2.1-1.5,2.6-2.2.6-.8.9-1.8.9-3.2v-53.1c0-2,0-3.8-4.2-3.8h0ZM265.4,139.4c.4,0,.8-.2,1.2-.3,1.5-.5,2.8-1.1,4-1.8-1.2.7-2.5,1.3-4,1.8-.4.1-.8.2-1.2.3ZM254.4,106c1.8-.6,3.7-.9,5.7-.9h0c-2,0-3.9.3-5.7.9-.4.2-.9.3-1.3.5.4-.2.9-.4,1.3-.5h0ZM270.3,108.5v28.7c-1.1.7-2.4,1.2-3.8,1.7-1.4.5-3.3.7-5.5.7-4.7,0-8.5-1.3-11.3-3.9-2.8-2.6-4.2-6.9-4.2-12.8s.4-6,1.2-8.2c.8-2.2,1.9-4.1,3.2-5.4,1.3-1.4,2.9-2.4,4.6-3,1.8-.6,3.7-.9,5.6-.9s4.1.3,5.8,1c1.6.6,3.1,1.4,4.3,2.2h0ZM269.4,100.8c-.8-.4-1.6-.7-2.5-1,.9.3,1.8.6,2.5,1ZM259.4,98.6c-.4,0-.8,0-1.1,0,.4,0,.8,0,1.1,0h0ZM250.7,100c.3-.1.7-.2,1-.3-.3,0-.7.2-1,.3-1.4.5-2.6,1-3.8,1.8,1.2-.7,2.4-1.3,3.8-1.8ZM241,107.6c-.8,1.2-1.5,2.6-2.1,4.1.6-1.5,1.3-2.9,2.1-4.1ZM239.9,135.5c-.4-.7-.7-1.4-.9-2.1-.3-.7-.5-1.5-.8-2.3.2.8.5,1.6.8,2.3.3.7.6,1.4.9,2.1.7,1.4,1.5,2.6,2.4,3.7-.9-1.1-1.8-2.3-2.4-3.7ZM278.3,84.6v53c0,1-.2,1.8-.5,2.4-.1.2-.2.4-.4.6-.1.2-.3.4-.5.5-.5.5-1.2,1.1-2.1,1.6-.3.2-.7.4-1.1.6-.8.4-1.7.8-2.8,1.2,1.1-.4,2-.8,2.8-1.2.4-.2.8-.4,1.1-.6.9-.5,1.6-1.1,2.1-1.6.2-.2.3-.4.5-.5s.3-.4.4-.6c.3-.6.5-1.5.5-2.4v-53.1c0-.8,0-1.4-.2-2-.2-.7-.8-1.1-1.9-1.4,1.1.2,1.6.7,1.9,1.4.2.6.2,1.2.2,2Z"/>
          <path class="st0" d="M326.7,121.9c.7-.7,1-1.8,1-3.3,0-2.9-.5-5.7-1.5-8.2-1-2.5-2.5-4.6-4.2-6.4-1.8-1.8-4-3.2-6.5-4.2-2.5-1-5.2-1.5-8.2-1.5s-6.1.6-8.8,1.6c-2.7,1.1-5,2.7-7,4.7-1.9,2-3.5,4.5-4.5,7.5-1.1,2.9-1.6,6.3-1.6,10,0,7.9,2.2,14,6.7,18.2,4.4,4.1,10.5,6.2,18.1,6.2s4.2-.2,6.1-.6,3.5-.9,4.9-1.6c1.4-.7,2.6-1.4,3.4-2.3.9-.9,1.3-1.8,1.3-2.8,0-1.7-1.4-3.1-3-3.1s-1,.1-1.5.4c-1,.6-2.1,1.1-3.4,1.7-2.2.9-4.6,1.4-7.3,1.4-9.2,0-14.7-4.1-16.5-12.3l29.8-4.2c1.2-.1,2.2-.5,2.9-1.2h0ZM327.5,118.7c0,.7,0,1.3-.2,1.8.2-.5.2-1.1.2-1.8,0-2.2-.3-4.3-.9-6.2.6,1.9.9,4,.9,6.2ZM299.4,107.3c-.7.5-1.4,1.1-2.1,1.8.6-.7,1.3-1.3,2.1-1.8ZM316.1,108.6c2.1,2.2,3.3,5.1,3.7,8.5l-26.3,3.6c.2-4.9,1.5-8.8,4-11.4,2.5-2.7,5.8-4.1,9.7-4.1s6.8,1.1,9,3.4h0ZM313.5,106.3c.7.4,1.4.8,2,1.3-.6-.5-1.2-.9-2-1.3ZM307.2,105h0c-.5,0-1,0-1.5,0-1.4.1-2.8.4-4,1,1.2-.5,2.6-.8,4-1,.5,0,1,0,1.5,0ZM309.4,98.7c-.7,0-1.4,0-2.1,0h0c.7,0,1.5,0,2.1,0ZM291.7,104.9c1-1,2-1.9,3.2-2.7-1.1.8-2.2,1.7-3.2,2.7-.5.5-.9,1-1.4,1.6.4-.6.9-1.1,1.4-1.6ZM295.8,142.9c3.9,2.3,8.7,3.5,14.3,3.5h0c-5.7,0-10.4-1.1-14.3-3.5ZM321,144.2c-.2,0-.4.1-.5.2.2,0,.4-.1.5-.2.4-.2.7-.3,1-.5-.3.2-.6.3-1,.5ZM324.3,141.9c-.4.4-.9.8-1.4,1.2.5-.4,1-.8,1.4-1.2.2-.2.4-.4.5-.6-.1.2-.3.4-.5.6ZM323.2,136.5s0,0,.1,0c0,0,0,0-.1,0ZM323.8,136.6s0,0,0,0c0,0,0,0,0,0ZM324.2,136.9s0,0,0,0c0,0,0,0,0,0ZM325,137.6s0,0,0,.1c0,0,0,0,0-.1ZM325.3,138.1s0,0,0,0c0,0,0,0,0,0ZM325.5,138.6s0,0,0,.1c0,0,0,0,0-.1ZM324.7,137.2s0,0,0,0c0,0,0,0,0,0ZM322.8,136.4h0,0ZM322,136.5h0,0ZM310.5,139.9h0c.7,0,1.4,0,2,0-.6,0-1.3,0-2,0ZM308.8,125l15-2.1c.3,0,.6,0,.8-.1-.3,0-.5.1-.8.1l-15,2.1Z"/>
        </g>
        <path class="st0" d="M432.9,95.8c-2.4-1.9-5.5-2.9-9.5-2.9s-10.4,1.9-14.7,5.8c.5,1.7.8,3.5.8,5.4v38.4c0,1.1-.8,2.1-1.9,2.4h0c-.9.2-1.8.3-2.7.3-3.6,0-5.4-1.5-5.4-4.6v-35.8c0-4.1-1.2-7.2-3.5-9.1-2.4-1.9-5.6-2.9-9.6-2.9s-5.2.4-7.6,1.3c-2.4.8-4.5,1.8-6.1,2.9v45.5c0,1.1-.8,2.1-1.9,2.4h0c-.8.2-1.8.3-2.8.3-3.6,0-5.4-1.5-5.4-4.6v-43.1c0-1.7.4-3.1,1.1-4.2.7-1.1,2-2.3,3.7-3.5,2.3-1.4,5.2-2.7,8.7-3.7s7-1.6,10.6-1.6,7.8.6,11,1.8,5.6,2.9,7.3,5c2.2-1.9,4.9-3.6,8.2-4.9,3.3-1.3,7-2,11.3-2,6.8,0,12.3,1.6,16.3,4.9,4,3.2,6.1,8.2,6.1,15v38.1c0,1.1-.8,2.1-1.9,2.4h0c-.9.2-1.8.3-2.7.3-3.6,0-5.4-1.5-5.4-4.6v-35.8c0-4.1-1.2-7.2-3.5-9.1h0Z"/>
        <path class="st0" d="M479.4,84.6c7.3,0,13.1,1.6,17.5,4.9,4.3,3.3,6.5,8.5,6.5,15.6v30c0,1.9-.4,3.3-1.1,4.2s-1.8,1.9-3.2,2.7c-2,1.2-4.7,2.2-8,3.1s-7.1,1.3-11.4,1.3c-7.9,0-14.1-1.6-18.4-4.7s-6.5-7.6-6.5-13.5,1.8-9.8,5.4-12.6c3.6-2.8,8.7-4.6,15.3-5.2l18-1.8v-3.5c0-4.2-1.3-7.3-3.8-9.2-2.5-1.9-5.9-2.9-10.2-2.9s-6.9.5-10,1.5c-2.4.8-4.5,1.6-6.5,2.5-1.2.6-2.7.2-3.5-.9h0c-.6-.9-1-1.9-1-3s.3-2,.9-2.7c.6-.8,1.5-1.5,2.8-2.2,2.3-1.2,4.9-2.1,7.8-2.7,3-.6,6.1-.9,9.6-.9h0ZM479.5,138.1c3.5,0,6.5-.4,8.8-1.1,2.3-.7,4-1.4,5-2.1v-18.3l-15.7,1.6c-4.4.4-7.6,1.4-9.7,3s-3.2,3.9-3.2,6.9,1.2,5.7,3.7,7.4c2.4,1.7,6.1,2.6,11.1,2.6h0Z"/>
        <path class="st0" d="M534.9,146.3c-5.9,0-10.7-1.3-14.3-3.9s-5.5-7-5.5-13v-57.2c0-1.1,0-3.7,5-3.7s5.1,2.6,5.1,3.7v15.4h17.9c.9,0,4,0,4,4.1s-3.1,4.3-4,4.3h-17.9v32.9c0,3.4,1,5.8,2.8,7.1,1.9,1.4,4.6,2.1,8,2.1s3-.2,4.8-.8c1-.3,1.9-.6,2.7-.9,1.2-.5,2.5,0,3.1,1h0c.4.8.7,1.7.7,2.7,0,1.9-1.1,3.4-3.3,4.6-2.2,1.2-5.2,1.8-9.1,1.8h0Z"/>
        <path class="st0" d="M574.6,146.3c-5.9,0-10.7-1.3-14.3-3.9s-5.5-7-5.5-13v-57.2c0-1.1,0-3.7,5-3.7s5.1,2.6,5.1,3.7v15.4h17.9c.9,0,4,0,4,4.1s-3.1,4.3-4,4.3h-17.9v32.9c0,3.4,1,5.8,2.8,7.1,1.9,1.4,4.6,2.1,8,2.1s3-.2,4.8-.8c1-.3,1.9-.6,2.7-.9,1.2-.5,2.5,0,3.1,1h0c.4.8.7,1.7.7,2.7,0,1.9-1.1,3.4-3.3,4.6-2.2,1.2-5.2,1.8-9.1,1.8h0Z"/>
      </g>
      <g>
        <path class="st0" d="M114.1,16.8c-3.6.2-3.3-3.9-.3-4,2.5,0,5.6-.2,8.8-.2.3-2,.4-4,.4-5.9,0-3.4,4.7-3,4.7.2,0,1.7-.1,3.6-.4,5.6,1.8,0,3.6,0,5.1,0,3.5,0,5.9,1.9,5.9,5.5-.1,4.5-1,10.9-2.8,14.3-2.8,4.9-8.8,6.3-13.1,2.7-2.3-1.9,0-5.7,2.8-3.6,2.4,1.8,4.7,1,6.2-1.2,1.7-2.6,2.4-8.7,2.4-11,0-1.4-.8-2.6-2.4-2.6-1.4,0-3.1,0-4.8,0-1.9,8.1-6.1,16.9-14,21.2-2.8,1.5-5.6-2.1-2.1-4,6.1-3.3,9.8-10,11.6-17.1-2.8,0-5.6.2-7.8.3h0Z"/>
        <path class="st0" d="M167.8,32.7c9.8-3.1,15.6-11.2,17.6-17.7.4-1.2.2-2.3-1.4-2.4-4.4-.1-11.4.1-17.8.4-2.9,0-3.2-4.3,0-4.4,5.9-.3,14.2-.3,19.8-.2,3.6,0,6.1,2.8,4.8,6.4-3.1,8.9-8.5,17.5-21,22.3-3.8,1.4-5.4-3.2-2-4.3h0Z"/>
        <path class="st0" d="M221.4,22.7c-1.3,0-1.9-1-1.8-1.9,0-.9.6-1.9,1.9-1.8,4.2,0,9.7.1,14.5-.1,1.4,0,2,.9,2,1.8s-.6,1.8-1.9,1.9c-1.5,0-3.4.1-5.4.2,0,2.5,0,5.6,0,7.6,3.4,0,6.8,0,9.4,0s2.6,4-.4,3.9c-6.8-.1-15.9,0-22,0-3,0-2.8-3.7,0-3.8,2.4,0,5.6,0,8.9-.1,0-2.3,0-5.7,0-7.6-2.1,0-4.1,0-5.4,0h0Z"/>
        <path class="st0" d="M275.7,16c.4-.8.8-1.6,1.4-2.3.7-.9.5-.9-.4-.6-3.3,1.1-2.6,1.1-5.6,2.2-1.4.5-2.7,1-4,1.3-3.9,1.1-5.1-4-1.5-4.8.9-.2,3.5-.7,4.9-1.1,2.2-.5,6.1-1.4,10.6-2.7,4.6-1.3,8.2-2.3,12.1-2.6,2.8-.2,3.5,2,3,3.4-.3.8-1.2,1.6-4.4,1.5-2.3-.1-5.1.7-6.6,1.2-2.5.9-4.8,3.6-5.7,5.2-3.9,6.5-.9,15.9,9,15.5,4.7-.2,5,5.1.3,5-13.4,0-18-12.4-13.2-21.3h0ZM289.3,19c-2.4-1-.6-3.8,1.6-3,1.2.4,3.6,1.7,4.7,2.8,1.8,2-.9,4.8-2.5,3-.6-.7-2.8-2.4-3.8-2.8h0ZM293.8,15.1c-2.4-.9-.7-3.8,1.5-3.1,1.2.4,3.6,1.6,4.7,2.7,1.9,1.9-.8,4.8-2.4,3-.6-.7-2.9-2.3-3.9-2.6h0Z"/>
        <path class="st0" d="M334.4,21.3c-3.5,3.1-4.4,3.1-4.8,3.1-1.2,0-2.1-1.1-2.1-2.2s.3-1.3,1.1-1.8c3.8-2.2,7.6-6.1,10.4-10.7.4-.7,1.1-1,1.6-1,1.2,0,2.4,1.1,2.4,2.3s-.8,2.3-4.2,6.1l-.5,20.5c0,1.3-1.1,2-2.2,2s-2-.6-2-1.9h0c0,0,.5-16.4.5-16.4h0ZM330.1,13.8c-1.2,0-2.2-.9-2.2-2s.4-1.5,1.5-2.1c3.5-2,6.4-5,8.5-8.6C338.4.3,339,0,339.6,0c1.1,0,2.2,1,2.2,2.2s-.1.9-.4,1.3c-2.8,4-8.7,10.3-11.3,10.3h0ZM361.7,24.7v2.7s.2,6,.2,6v.2c0,3-1.7,5.6-7,5.6s-5.6-.8-5.6-2.5.7-2.1,2-2.1.3,0,.4,0c1.2.3,2.3.4,3.1.4,1.9,0,2.8-.7,2.8-2.5v-7.9h-14.7c-1.3,0-2-.9-2-1.8s.7-1.8,2-1.8h14.6v-1.6c0-1.2,1-1.8,2-1.8s2,.6,2,1.8v1.6h4.6c1.2,0,1.9.9,1.9,1.8s-.6,1.8-1.9,1.8h-4.6,0ZM343.4,17c-1.3,0-2-.9-2-1.8s.7-1.8,2-1.8h8.7v-3.9h-6.7c-1.3,0-2-.9-2-1.8s.7-1.8,2-1.8h6.7v-3.9c0-1.3,1.1-1.9,2.1-1.9s2.1.6,2.1,1.9v3.9h7.3c1.3,0,1.9.9,1.9,1.8s-.6,1.8-1.9,1.8h-7.3v3.9h9.7c1.2,0,1.9.9,1.9,1.8s-.6,1.8-1.9,1.8h-22.6ZM349.7,32.1c-1.2-1.5-2.8-2.6-3.7-3.1-.7-.4-.9-.8-.9-1.4,0-.9.8-1.9,2-1.9s6.1,2.6,6.1,4.9-1,2.3-2,2.3-1.1-.3-1.5-.8Z"/>
        <path class="st0" d="M406.2,36.6c-3.4.5-3.7-3.5-.8-4,3.9-.5,6.8-1.7,9-3.6,2.6-2.3,2.7-4.6,1.4-6.1-1.8-2.1-5.2-2-8-1.2-3.1.9-5.8,2.6-8.7,4-2.9,1.4-4.6-2.6-1.8-3.8,2.7-1.1,6.4-2.8,9.8-3.7,3.6-.9,8.5-.9,11.5,2.2,3.6,3.7,2.1,8.4-1.8,11.7-2.6,2.1-5.9,3.7-10.6,4.4h0Z"/>
        <path class="st0" d="M455.1,16c.4-.8.8-1.6,1.4-2.3.7-.9.5-.9-.4-.6-3.3,1.1-2.6,1.1-5.6,2.2-1.4.5-2.7,1-4,1.3-3.9,1.1-5.1-4-1.5-4.8.9-.2,3.5-.7,4.9-1.1,2.2-.5,6-1.4,10.6-2.7,4.6-1.3,8.2-2.3,12.1-2.6,2.8-.2,3.5,2,3,3.4-.3.8-1.2,1.6-4.4,1.5-2.3-.1-5.1.7-6.6,1.2-2.5.9-4.7,3.6-5.7,5.2-3.9,6.5-.9,15.9,9,15.5,4.7-.2,4.9,5.1.2,5-13.4,0-18-12.4-13.2-21.3h0Z"/>
        <path class="st0" d="M514.6,16c.4-.8.8-1.6,1.4-2.3.7-.9.5-.9-.3-.6-3.3,1.1-2.6,1.1-5.6,2.2-1.4.5-2.7,1-4,1.3-3.9,1.1-5.1-4-1.5-4.8.9-.2,3.5-.7,4.9-1.1,2.2-.5,6-1.4,10.6-2.7,4.6-1.3,8.2-2.3,12.1-2.6,2.8-.2,3.5,2,3,3.4-.3.8-1.2,1.6-4.3,1.5-2.3-.1-5.1.7-6.6,1.2-2.5.9-4.7,3.6-5.7,5.2-3.9,6.5-.9,15.9,9,15.5,4.7-.2,4.9,5.1.2,5-13.4,0-18-12.4-13.2-21.3h0Z"/>
      </g>
    </g>
  </g>
</svg>